<svg preserveAspectRatio="none" width="100%" height="100%" overflow="visible" style="display: block;" viewBox="0 0 48 48" fill="none" xmlns="http://www.w3.org/2000/svg">
<g id="cast_for_education">
<mask id="mask0_0_20" style="mask-type:alpha" maskUnits="userSpaceOnUse" x="0" y="0" width="48" height="48">
<rect id="Bounding box" width="48" height="48" fill="var(--fill-0, #D9D9D9)"/>
</mask>
<g mask="url(#mask0_0_20)">
<path id="cast_for_education_2" d="M29.5 23.6L37.5 19L29.5 14.4L21.5 19L29.5 23.6ZM29.5 29.7L35 26.5V22.3L29.5 25.5L24 22.3V26.5L29.5 29.7ZM40 40H30C30 39.3333 29.975 38.6667 29.925 38C29.875 37.3333 29.8 36.6667 29.7 36H40V12H8V14.3C7.33333 14.2 6.66667 14.125 6 14.075C5.33333 14.025 4.66667 14 4 14V12C4 10.9 4.39167 9.95833 5.175 9.175C5.95833 8.39167 6.9 8 8 8H40C41.1 8 42.0417 8.39167 42.825 9.175C43.6083 9.95833 44 10.9 44 12V36C44 37.1 43.6083 38.0417 42.825 38.825C42.0417 39.6083 41.1 40 40 40ZM4 40V34C5.66667 34 7.08333 34.5833 8.25 35.75C9.41667 36.9167 10 38.3333 10 40H4ZM14 40C14 37.2333 13.025 34.875 11.075 32.925C9.125 30.975 6.76667 30 4 30V26C7.9 26 11.2083 27.3583 13.925 30.075C16.6417 32.7917 18 36.1 18 40H14ZM22 40C22 37.5 21.525 35.1583 20.575 32.975C19.625 30.7917 18.3417 28.8917 16.725 27.275C15.1083 25.6583 13.2083 24.375 11.025 23.425C8.84167 22.475 6.5 22 4 22V18C7.03333 18 9.88333 18.575 12.55 19.725C15.2167 20.875 17.55 22.45 19.55 24.45C21.55 26.45 23.125 28.7833 24.275 31.45C25.425 34.1167 26 36.9667 26 40H22Z" fill="url(#paint0_linear_0_20)"/>
</g>
</g>
<defs>
<linearGradient id="paint0_linear_0_20" x1="48.8" y1="86.6667" x2="-35.7253" y2="-34.1718" gradientUnits="userSpaceOnUse">
<stop stop-color="#C30707"/>
<stop offset="1" stop-color="#FE0066"/>
</linearGradient>
</defs>
</svg>
