<svg preserveAspectRatio="none" width="100%" height="100%" overflow="visible" style="display: block;" viewBox="0 0 48 48" fill="none" xmlns="http://www.w3.org/2000/svg">
<g id="auto_stories">
<mask id="mask0_0_17" style="mask-type:alpha" maskUnits="userSpaceOnUse" x="0" y="0" width="48" height="48">
<rect id="Bounding box" width="48" height="48" fill="var(--fill-0, #D9D9D9)"/>
</mask>
<g mask="url(#mask0_0_17)">
<path id="auto_stories_2" d="M24 40C22.4 38.7333 20.6667 37.75 18.8 37.05C16.9333 36.35 15 36 13 36C11.6 36 10.225 36.1833 8.875 36.55C7.525 36.9167 6.23333 37.4333 5 38.1C4.3 38.4667 3.625 38.45 2.975 38.05C2.325 37.65 2 37.0667 2 36.3V12.2C2 11.8333 2.09167 11.4833 2.275 11.15C2.45833 10.8167 2.73333 10.5667 3.1 10.4C4.63333 9.6 6.23333 9 7.9 8.6C9.56667 8.2 11.2667 8 13 8C14.9333 8 16.825 8.25 18.675 8.75C20.525 9.25 22.3 10 24 11V35.2C25.7 34.1333 27.4833 33.3333 29.35 32.8C31.2167 32.2667 33.1 32 35 32C36.2 32 37.375 32.1 38.525 32.3C39.675 32.5 40.8333 32.8 42 33.2V9.2C42.5 9.36667 42.9917 9.54167 43.475 9.725C43.9583 9.90833 44.4333 10.1333 44.9 10.4C45.2667 10.5667 45.5417 10.8167 45.725 11.15C45.9083 11.4833 46 11.8333 46 12.2V36.3C46 37.0667 45.675 37.65 45.025 38.05C44.375 38.45 43.7 38.4667 43 38.1C41.7667 37.4333 40.475 36.9167 39.125 36.55C37.775 36.1833 36.4 36 35 36C33 36 31.0667 36.35 29.2 37.05C27.3333 37.75 25.6 38.7333 24 40ZM28 30V11L38 1V21L28 30ZM20 33.25V13.45C18.9 12.9833 17.7583 12.625 16.575 12.375C15.3917 12.125 14.2 12 13 12C11.7667 12 10.5667 12.1167 9.4 12.35C8.23333 12.5833 7.1 12.9333 6 13.4V33.25C7.16667 32.8167 8.325 32.5 9.475 32.3C10.625 32.1 11.8 32 13 32C14.2 32 15.375 32.1 16.525 32.3C17.675 32.5 18.8333 32.8167 20 33.25Z" fill="url(#paint0_linear_0_17)"/>
</g>
</g>
<defs>
<linearGradient id="paint0_linear_0_17" x1="51.28" y1="96.875" x2="-54.9166" y2="-40.1523" gradientUnits="userSpaceOnUse">
<stop stop-color="#C30707"/>
<stop offset="1" stop-color="#FE0066"/>
</linearGradient>
</defs>
</svg>
