<svg preserveAspectRatio="none" width="100%" height="100%" overflow="visible" style="display: block;" viewBox="0 0 53.9106 53.9106" fill="none" xmlns="http://www.w3.org/2000/svg">
<g id="tactic">
<mask id="mask0_0_8" style="mask-type:alpha" maskUnits="userSpaceOnUse" x="0" y="0" width="54" height="54">
<rect id="Bounding box" width="53.9106" height="53.9106" fill="var(--fill-0, #D9D9D9)"/>
</mask>
<g mask="url(#mask0_0_8)">
<path id="tactic_2" d="M36.8384 47.1719L33.6936 44.0271L37.2315 40.4331L33.6936 36.8952L36.8384 33.6943L40.4324 37.2883L43.9703 33.6943L47.1712 36.8952L43.5772 40.4331L47.1712 44.0271L43.9703 47.1719L40.4324 43.634L36.8384 47.1719ZM15.0776 42.0335C15.5081 41.603 15.7234 41.0695 15.7234 40.4331C15.7234 39.7966 15.5081 39.2631 15.0776 38.8326C14.647 38.4021 14.1136 38.1868 13.4771 38.1868C12.8407 38.1868 12.3072 38.4021 11.8766 38.8326C11.4461 39.2631 11.2308 39.7966 11.2308 40.4331C11.2308 41.0695 11.4461 41.603 11.8766 42.0335C12.3072 42.4641 12.8407 42.6793 13.4771 42.6793C14.1136 42.6793 14.647 42.4641 15.0776 42.0335ZM13.4771 47.1719C11.6052 47.1719 10.0141 46.5167 8.70377 45.2064C7.39344 43.8961 6.73828 42.305 6.73828 40.4331C6.73828 38.5612 7.39344 36.9701 8.70377 35.6597C10.0141 34.3494 11.6052 33.6943 13.4771 33.6943C14.8623 33.6943 16.1258 34.078 17.2677 34.8455C18.4096 35.6129 19.2425 36.6518 19.7667 37.9622C21.2268 37.5504 22.4154 36.7454 23.3326 35.5474C24.2499 34.3494 24.7085 32.9829 24.7085 31.448V22.4629C24.7085 19.3555 25.8035 16.7068 27.9937 14.5167C30.1838 12.3266 32.8325 11.2315 35.9399 11.2315H38.5231L34.9852 7.69362L38.1861 4.49268L47.1712 13.4778L38.1861 22.4629L34.9852 19.3181L38.5231 15.7241H35.9399C34.068 15.7241 32.4769 16.3792 31.1665 17.6895C29.8562 18.9999 29.201 20.591 29.201 22.4629V31.448C29.201 34.1809 28.3212 36.5863 26.5617 38.6641C24.8021 40.7419 22.5745 42.0242 19.879 42.5109C19.4297 43.8961 18.6155 45.0192 17.4362 45.8803C16.2569 46.7414 14.9372 47.1719 13.4771 47.1719ZM9.88307 20.2166L6.73828 17.0718L10.2762 13.4778L6.73828 9.93989L9.88307 6.73895L13.4771 10.333L17.015 6.73895L20.2159 9.93989L16.6219 13.4778L20.2159 17.0718L17.015 20.2166L13.4771 16.6787L9.88307 20.2166Z" fill="url(#paint0_linear_0_8)"/>
</g>
</g>
<defs>
<linearGradient id="paint0_linear_0_8" x1="52.0232" y1="109.412" x2="-67.6027" y2="-20.2017" gradientUnits="userSpaceOnUse">
<stop stop-color="#C30707"/>
<stop offset="1" stop-color="#FE0066"/>
</linearGradient>
</defs>
</svg>
