<svg preserveAspectRatio="none" width="100%" height="100%" overflow="visible" style="display: block;" viewBox="0 0 38 38" fill="none" xmlns="http://www.w3.org/2000/svg">
<g id="work_history">
<mask id="mask0_0_34" style="mask-type:alpha" maskUnits="userSpaceOnUse" x="0" y="0" width="38" height="39">
<rect id="Bounding box" y="0.000218391" width="38" height="38" fill="var(--fill-0, #D9D9D9)"/>
</mask>
<g mask="url(#mask0_0_34)">
<path id="work_history_2" d="M31.1125 32.2215L32.2208 31.1132L29.2917 28.184V23.7507H27.7083V28.8174L31.1125 32.2215ZM15.8333 9.50069H22.1667V6.33402H15.8333V9.50069ZM22.899 34.1017C21.3552 32.558 20.5833 30.691 20.5833 28.5007C20.5833 26.3104 21.3552 24.4434 22.899 22.8996C24.4427 21.3559 26.3097 20.584 28.5 20.584C30.6903 20.584 32.5573 21.3559 34.101 22.8996C35.6448 24.4434 36.4167 26.3104 36.4167 28.5007C36.4167 30.691 35.6448 32.558 34.101 34.1017C32.5573 35.6455 30.6903 36.4173 28.5 36.4173C26.3097 36.4173 24.4427 35.6455 22.899 34.1017ZM6.33333 33.2507C5.4625 33.2507 4.71701 32.9406 4.09688 32.3205C3.47674 31.7003 3.16667 30.9549 3.16667 30.084V12.6674C3.16667 11.7965 3.47674 11.051 4.09688 10.4309C4.71701 9.81076 5.4625 9.50069 6.33333 9.50069H12.6667V6.33402C12.6667 5.46319 12.9767 4.7177 13.5969 4.09756C14.217 3.47742 14.9625 3.16735 15.8333 3.16735H22.1667C23.0375 3.16735 23.783 3.47742 24.4031 4.09756C25.0233 4.7177 25.3333 5.46319 25.3333 6.33402V9.50069H31.6667C32.5375 9.50069 33.283 9.81076 33.9031 10.4309C34.5233 11.051 34.8333 11.7965 34.8333 12.6674V19.4361C33.9097 18.7764 32.9069 18.275 31.825 17.9319C30.7431 17.5889 29.6347 17.4174 28.5 17.4174C25.4389 17.4174 22.8264 18.4993 20.6625 20.6632C18.4986 22.8271 17.4167 25.4396 17.4167 28.5007C17.4167 29.3187 17.5024 30.1302 17.674 30.9351C17.8455 31.7399 18.116 32.5118 18.4854 33.2507H6.33333Z" fill="var(--fill-0, #FE0000)"/>
</g>
</g>
</svg>
