<svg preserveAspectRatio="none" width="100%" height="100%" overflow="visible" style="display: block;" viewBox="0 0 38.0179 38.0179" fill="none" xmlns="http://www.w3.org/2000/svg">
<g id="support_agent">
<mask id="mask0_0_19" style="mask-type:alpha" maskUnits="userSpaceOnUse" x="0" y="0" width="39" height="39">
<rect id="Bounding box" x="9.83069e-05" y="6.77599e-05" width="38.0179" height="38.0179" fill="var(--fill-0, #D9D9D9)"/>
</mask>
<g mask="url(#mask0_0_19)">
<path id="support_agent_2" d="M17.4251 33.2663V30.0981H30.0977V18.8511C30.0977 15.7622 29.0219 13.1419 26.8702 10.9902C24.7185 8.83846 22.0981 7.7626 19.0092 7.7626C15.9202 7.7626 13.2999 8.83846 11.1482 10.9902C8.99649 13.1419 7.92064 15.7622 7.92064 18.8511V28.514H6.33656C5.46532 28.514 4.71948 28.2038 4.09905 27.5834C3.47862 26.9629 3.16841 26.2171 3.16841 25.3459V22.1777C3.16841 21.6233 3.30701 21.1019 3.58423 20.6134C3.86144 20.125 4.25086 19.7356 4.75248 19.4452L4.87129 17.3463C5.0825 15.551 5.60392 13.8877 6.43557 12.3564C7.26721 10.8252 8.31006 9.49189 9.56412 8.35663C10.8182 7.22138 12.2571 6.33693 13.8807 5.7033C15.5044 5.06967 17.2139 4.75286 19.0092 4.75286C20.8045 4.75286 22.5074 5.06967 24.1178 5.7033C25.7283 6.33693 27.1672 7.21478 28.4344 8.33683C29.7017 9.45889 30.7446 10.7856 31.563 12.3168C32.3814 13.8481 32.9095 15.5114 33.1471 17.3067L33.2659 19.366C33.7675 19.6036 34.1569 19.96 34.4341 20.4352C34.7114 20.9104 34.85 21.4121 34.85 21.9401V25.5835C34.85 26.1115 34.7114 26.6131 34.4341 27.0884C34.1569 27.5636 33.7675 27.92 33.2659 28.1576V30.0981C33.2659 30.9693 32.9557 31.7152 32.3352 32.3356C31.7148 32.956 30.969 33.2663 30.0977 33.2663H17.4251ZM14.2569 22.1777C13.8081 22.1777 13.4319 22.0259 13.1283 21.7223C12.8247 21.4187 12.6729 21.0425 12.6729 20.5936C12.6729 20.1448 12.8247 19.7686 13.1283 19.465C13.4319 19.1614 13.8081 19.0096 14.2569 19.0096C14.7058 19.0096 15.082 19.1614 15.3856 19.465C15.6892 19.7686 15.841 20.1448 15.841 20.5936C15.841 21.0425 15.6892 21.4187 15.3856 21.7223C15.082 22.0259 14.7058 22.1777 14.2569 22.1777ZM23.7614 22.1777C23.3126 22.1777 22.9364 22.0259 22.6328 21.7223C22.3291 21.4187 22.1773 21.0425 22.1773 20.5936C22.1773 20.1448 22.3291 19.7686 22.6328 19.465C22.9364 19.1614 23.3126 19.0096 23.7614 19.0096C24.2102 19.0096 24.5865 19.1614 24.8901 19.465C25.1937 19.7686 25.3455 20.1448 25.3455 20.5936C25.3455 21.0425 25.1937 21.4187 24.8901 21.7223C24.5865 22.0259 24.2102 22.1777 23.7614 22.1777ZM9.54432 19.7224C9.35951 16.9239 10.2044 14.5213 12.0788 12.5148C13.9533 10.5083 16.2898 9.50509 19.0884 9.50509C21.4381 9.50509 23.504 10.2509 25.2861 11.7426C27.0682 13.2343 28.144 15.1418 28.5136 17.4651C26.1111 17.4387 23.9 16.7918 21.8803 15.5246C19.8606 14.2573 18.3095 12.5412 17.2271 10.3763C16.8047 12.4884 15.9136 14.3695 14.554 16.0196C13.1943 17.6697 11.5244 18.9039 9.54432 19.7224Z" fill="var(--fill-0, #FE0000)"/>
</g>
</g>
</svg>
