<svg preserveAspectRatio="none" width="100%" height="100%" overflow="visible" style="display: block;" viewBox="0 0 20.8717 20.8717" fill="none" xmlns="http://www.w3.org/2000/svg">
<g id="calendar_month">
<mask id="mask0_0_13" style="mask-type:alpha" maskUnits="userSpaceOnUse" x="0" y="0" width="21" height="21">
<rect id="Bounding box" x="0.000159801" y="1.77557e-05" width="20.8717" height="20.8717" fill="var(--fill-0, #D9D9D9)"/>
</mask>
<g mask="url(#mask0_0_13)">
<path id="calendar_month_2" d="M10.4353 12.1754C10.1889 12.1754 9.98235 12.0921 9.81566 11.9254C9.64898 11.7587 9.56564 11.5522 9.56564 11.3058C9.56564 11.0594 9.64898 10.8528 9.81566 10.6862C9.98235 10.5195 10.1889 10.4361 10.4353 10.4361C10.6817 10.4361 10.8882 10.5195 11.0549 10.6862C11.2216 10.8528 11.3049 11.0594 11.3049 11.3058C11.3049 11.5522 11.2216 11.7587 11.0549 11.9254C10.8882 12.0921 10.6817 12.1754 10.4353 12.1754ZM6.33705 11.9254C6.17037 11.7587 6.08703 11.5522 6.08703 11.3058C6.08703 11.0594 6.17037 10.8528 6.33705 10.6862C6.50373 10.5195 6.71028 10.4361 6.95668 10.4361C7.20308 10.4361 7.40962 10.5195 7.57631 10.6862C7.74299 10.8528 7.82633 11.0594 7.82633 11.3058C7.82633 11.5522 7.74299 11.7587 7.57631 11.9254C7.40962 12.0921 7.20308 12.1754 6.95668 12.1754C6.71028 12.1754 6.50373 12.0921 6.33705 11.9254ZM13.9139 12.1754C13.6675 12.1754 13.461 12.0921 13.2943 11.9254C13.1276 11.7587 13.0443 11.5522 13.0443 11.3058C13.0443 11.0594 13.1276 10.8528 13.2943 10.6862C13.461 10.5195 13.6675 10.4361 13.9139 10.4361C14.1603 10.4361 14.3668 10.5195 14.5335 10.6862C14.7002 10.8528 14.7836 11.0594 14.7836 11.3058C14.7836 11.5522 14.7002 11.7587 14.5335 11.9254C14.3668 12.0921 14.1603 12.1754 13.9139 12.1754ZM10.4353 15.6541C10.1889 15.6541 9.98235 15.5707 9.81566 15.404C9.64898 15.2373 9.56564 15.0308 9.56564 14.7844C9.56564 14.538 9.64898 14.3315 9.81566 14.1648C9.98235 13.9981 10.1889 13.9147 10.4353 13.9147C10.6817 13.9147 10.8882 13.9981 11.0549 14.1648C11.2216 14.3315 11.3049 14.538 11.3049 14.7844C11.3049 15.0308 11.2216 15.2373 11.0549 15.404C10.8882 15.5707 10.6817 15.6541 10.4353 15.6541ZM6.33705 15.404C6.17037 15.2373 6.08703 15.0308 6.08703 14.7844C6.08703 14.538 6.17037 14.3315 6.33705 14.1648C6.50373 13.9981 6.71028 13.9147 6.95668 13.9147C7.20308 13.9147 7.40962 13.9981 7.57631 14.1648C7.74299 14.3315 7.82633 14.538 7.82633 14.7844C7.82633 15.0308 7.74299 15.2373 7.57631 15.404C7.40962 15.5707 7.20308 15.6541 6.95668 15.6541C6.71028 15.6541 6.50373 15.5707 6.33705 15.404ZM13.9139 15.6541C13.6675 15.6541 13.461 15.5707 13.2943 15.404C13.1276 15.2373 13.0443 15.0308 13.0443 14.7844C13.0443 14.538 13.1276 14.3315 13.2943 14.1648C13.461 13.9981 13.6675 13.9147 13.9139 13.9147C14.1603 13.9147 14.3668 13.9981 14.5335 14.1648C14.7002 14.3315 14.7836 14.538 14.7836 14.7844C14.7836 15.0308 14.7002 15.2373 14.5335 15.404C14.3668 15.5707 14.1603 15.6541 13.9139 15.6541ZM4.34772 19.1327C3.86941 19.1327 3.45995 18.9624 3.11933 18.6217C2.77872 18.2811 2.60841 17.8717 2.60841 17.3934V5.21822C2.60841 4.73991 2.77872 4.33045 3.11933 3.98983C3.45995 3.64922 3.86941 3.47891 4.34772 3.47891H5.21737V1.7396H6.95668V3.47891H13.9139V1.7396H15.6532V3.47891H16.5229C17.0012 3.47891 17.4106 3.64922 17.7512 3.98983C18.0919 4.33045 18.2622 4.73991 18.2622 5.21822V17.3934C18.2622 17.8717 18.0919 18.2811 17.7512 18.6217C17.4106 18.9624 17.0012 19.1327 16.5229 19.1327H4.34772ZM4.34772 17.3934H16.5229V8.69683H4.34772V17.3934Z" fill="var(--fill-0, white)"/>
</g>
</g>
</svg>
