<svg preserveAspectRatio="none" width="100%" height="100%" overflow="visible" style="display: block;" viewBox="0 0 20.0229 20.0229" fill="none" xmlns="http://www.w3.org/2000/svg">
<g id="auto_stories">
<mask id="mask0_0_28" style="mask-type:alpha" maskUnits="userSpaceOnUse" x="0" y="0" width="21" height="21">
<rect id="Bounding box" width="20.0229" height="20.0229" fill="var(--fill-0, #D9D9D9)"/>
</mask>
<g mask="url(#mask0_0_28)">
<path id="auto_stories_2" d="M10.0119 16.6859C9.34445 16.1576 8.6214 15.7474 7.84273 15.4554C7.06406 15.1634 6.25759 15.0174 5.4233 15.0174C4.8393 15.0174 4.26573 15.0938 3.70259 15.2468C3.13944 15.3997 2.60064 15.6153 2.08616 15.8934C1.79416 16.0463 1.51259 16.0394 1.24144 15.8725C0.970302 15.7056 0.83473 15.4623 0.83473 15.1425V5.08936C0.83473 4.93641 0.872968 4.79041 0.949444 4.65136C1.02592 4.51232 1.14063 4.40803 1.29359 4.33851C1.93321 4.00479 2.60064 3.75451 3.29587 3.58765C3.99111 3.42079 4.70025 3.33736 5.4233 3.33736C6.22978 3.33736 7.01887 3.44165 7.79059 3.65022C8.5623 3.85879 9.30273 4.17165 10.0119 4.58879V14.6836C10.721 14.2387 11.4649 13.905 12.2436 13.6825C13.0223 13.46 13.8079 13.3488 14.6004 13.3488C15.101 13.3488 15.5912 13.3905 16.0709 13.4739C16.5506 13.5574 17.0338 13.6825 17.5204 13.8494V3.83794C17.729 3.90746 17.9341 3.98046 18.1357 4.05694C18.3374 4.13341 18.5355 4.22727 18.7302 4.33851C18.8831 4.40803 18.9978 4.51232 19.0743 4.65136C19.1508 4.79041 19.189 4.93641 19.189 5.08936V15.1425C19.189 15.4623 19.0534 15.7056 18.7823 15.8725C18.5112 16.0394 18.2296 16.0463 17.9376 15.8934C17.4231 15.6153 16.8843 15.3997 16.3212 15.2468C15.758 15.0938 15.1844 15.0174 14.6004 15.0174C13.7662 15.0174 12.9597 15.1634 12.181 15.4554C11.4024 15.7474 10.6793 16.1576 10.0119 16.6859ZM11.6804 12.5145V4.58879L15.8519 0.417365V8.76022L11.6804 12.5145Z" fill="var(--fill-0, white)"/>
</g>
</g>
</svg>
