<svg preserveAspectRatio="none" width="100%" height="100%" overflow="visible" style="display: block;" viewBox="0 0 38 38" fill="none" xmlns="http://www.w3.org/2000/svg">
<g id="experiment">
<mask id="mask0_0_31" style="mask-type:alpha" maskUnits="userSpaceOnUse" x="0" y="0" width="38" height="39">
<rect id="Bounding box" y="0.000218391" width="38" height="38" fill="var(--fill-0, #D9D9D9)"/>
</mask>
<g mask="url(#mask0_0_31)">
<path id="experiment_2" d="M7.91694 33.2498C6.57111 33.2498 5.61451 32.6495 5.04715 31.4488C4.47979 30.2481 4.61833 29.1332 5.46277 28.104L14.2503 17.4165V7.91651H12.6669C12.2183 7.91651 11.8423 7.76477 11.5388 7.4613C11.2353 7.15783 11.0836 6.78179 11.0836 6.33318C11.0836 5.88457 11.2353 5.50852 11.5388 5.20505C11.8423 4.90158 12.2183 4.74984 12.6669 4.74984H25.3336C25.7822 4.74984 26.1583 4.90158 26.4617 5.20505C26.7652 5.50852 26.9169 5.88457 26.9169 6.33318C26.9169 6.78179 26.7652 7.15783 26.4617 7.4613C26.1583 7.76477 25.7822 7.91651 25.3336 7.91651H23.7503V17.4165L32.5378 28.104C33.3822 29.1332 33.5208 30.2481 32.9534 31.4488C32.386 32.6495 31.4294 33.2498 30.0836 33.2498H7.91694ZM11.0836 28.4998H26.9169L21.5336 22.1665H16.4669L11.0836 28.4998ZM7.91694 30.0832H30.0836L20.5836 18.5248V7.91651H17.4169V18.5248L7.91694 30.0832Z" fill="var(--fill-0, #FE0000)"/>
</g>
</g>
</svg>
