<svg width="19" height="19" viewBox="0 0 19 19" fill="none" xmlns="http://www.w3.org/2000/svg">
<mask id="mask0_1464_28" style="mask-type:alpha" maskUnits="userSpaceOnUse" x="0" y="0" width="19" height="19">
<rect width="18.2324" height="18.2324" fill="#D9D9D9"/>
</mask>
<g mask="url(#mask0_1464_28)">
<path d="M15.1579 15.9536C13.5752 15.9536 12.0115 15.6086 10.4668 14.9185C8.92216 14.2285 7.51674 13.2504 6.2506 11.9843C4.98446 10.7181 4.00637 9.31271 3.31632 7.76802C2.62627 6.22332 2.28125 4.65964 2.28125 3.07697C2.28125 2.84906 2.35722 2.65914 2.50916 2.5072C2.66109 2.35527 2.85101 2.2793 3.07892 2.2793H6.15564C6.3329 2.2793 6.49117 2.33944 6.63044 2.45972C6.76972 2.58001 6.85202 2.72245 6.87734 2.88704L7.37113 5.54594C7.39646 5.74852 7.39013 5.91945 7.35214 6.05873C7.31416 6.198 7.24452 6.31828 7.14323 6.41958L5.301 8.2808C5.55422 8.74927 5.85493 9.20192 6.20312 9.63874C6.55131 10.0756 6.93432 10.4965 7.35214 10.9017C7.74465 11.2942 8.15614 11.6582 8.58663 11.9938C9.01712 12.3293 9.47293 12.6363 9.95406 12.9149L11.7393 11.1296C11.8533 11.0157 12.002 10.9302 12.1856 10.8732C12.3692 10.8162 12.5496 10.8004 12.7269 10.8257L15.3478 11.3575C15.5251 11.4082 15.6707 11.5 15.7846 11.6329C15.8986 11.7659 15.9556 11.9146 15.9556 12.0792V15.1559C15.9556 15.3839 15.8796 15.5738 15.7277 15.7257C15.5757 15.8776 15.3858 15.9536 15.1579 15.9536Z" fill="#25D366"/>
</g>
</svg>
