<svg width="143" height="62" viewBox="0 0 143 62" fill="none" xmlns="http://www.w3.org/2000/svg">
<rect width="142.37" height="62" rx="31" fill="#25D366" fill-opacity="0.25"/>
<rect x="10.1914" y="8.80859" width="44.3838" height="44.3838" rx="22.1919" fill="#25D366"/>
<mask id="mask0_1464_9" style="mask-type:alpha" maskUnits="userSpaceOnUse" x="20" y="19" width="25" height="25">
<rect x="20.3828" y="19.001" width="24" height="24" fill="#D9D9D9"/>
</mask>
<g mask="url(#mask0_1464_9)">
<path d="M40.3328 40.001C38.2495 40.001 36.1911 39.5468 34.1578 38.6385C32.1245 37.7301 30.2745 36.4426 28.6078 34.776C26.9411 33.1093 25.6536 31.2593 24.7453 29.226C23.837 27.1926 23.3828 25.1343 23.3828 23.051C23.3828 22.751 23.4828 22.501 23.6828 22.301C23.8828 22.101 24.1328 22.001 24.4328 22.001H28.4828C28.7161 22.001 28.9245 22.0801 29.1078 22.2385C29.2911 22.3968 29.3995 22.5843 29.4328 22.801L30.0828 26.301C30.1161 26.5676 30.1078 26.7926 30.0578 26.976C30.0078 27.1593 29.9161 27.3176 29.7828 27.451L27.3578 29.901C27.6911 30.5176 28.087 31.1135 28.5453 31.6885C29.0036 32.2635 29.5078 32.8176 30.0578 33.351C30.5745 33.8676 31.1161 34.3468 31.6828 34.7885C32.2495 35.2301 32.8495 35.6343 33.4828 36.001L35.8328 33.651C35.9828 33.501 36.1786 33.3885 36.4203 33.3135C36.662 33.2385 36.8995 33.2176 37.1328 33.251L40.5828 33.951C40.8161 34.0176 41.0078 34.1385 41.1578 34.3135C41.3078 34.4885 41.3828 34.6843 41.3828 34.901V38.951C41.3828 39.251 41.2828 39.501 41.0828 39.701C40.8828 39.901 40.6328 40.001 40.3328 40.001Z" fill="white"/>
</g>
<path d="M62.9515 36C62.8415 36 62.7515 35.965 62.6815 35.895C62.6115 35.825 62.5765 35.735 62.5765 35.625V25.875C62.5765 25.765 62.6115 25.675 62.6815 25.605C62.7515 25.535 62.8415 25.5 62.9515 25.5H64.9315C65.0315 25.5 65.1165 25.535 65.1865 25.605C65.2665 25.675 65.3065 25.765 65.3065 25.875V33.735H69.8365C69.9465 33.735 70.0365 33.775 70.1065 33.855C70.1865 33.925 70.2265 34.015 70.2265 34.125V35.625C70.2265 35.735 70.1865 35.825 70.1065 35.895C70.0365 35.965 69.9465 36 69.8365 36H62.9515ZM71.6017 36C71.4917 36 71.4017 35.965 71.3317 35.895C71.2617 35.825 71.2267 35.735 71.2267 35.625V25.875C71.2267 25.765 71.2617 25.675 71.3317 25.605C71.4017 25.535 71.4917 25.5 71.6017 25.5H73.6117C73.7217 25.5 73.8117 25.535 73.8817 25.605C73.9517 25.675 73.9867 25.765 73.9867 25.875V35.625C73.9867 35.735 73.9517 35.825 73.8817 35.895C73.8117 35.965 73.7217 36 73.6117 36H71.6017ZM80.1249 36.15C79.1749 36.15 78.3549 35.995 77.6649 35.685C76.9849 35.365 76.4549 34.905 76.0749 34.305C75.7049 33.695 75.4999 32.955 75.4599 32.085C75.4499 31.655 75.4449 31.2 75.4449 30.72C75.4449 30.23 75.4499 29.765 75.4599 29.325C75.4999 28.475 75.7099 27.755 76.0899 27.165C76.4699 26.575 77.0049 26.125 77.6949 25.815C78.3849 25.505 79.1949 25.35 80.1249 25.35C80.8749 25.35 81.5399 25.445 82.1199 25.635C82.6999 25.815 83.1849 26.06 83.5749 26.37C83.9749 26.68 84.2749 27.02 84.4749 27.39C84.6849 27.76 84.7949 28.125 84.8049 28.485C84.8149 28.575 84.7849 28.65 84.7149 28.71C84.6549 28.77 84.5799 28.8 84.4899 28.8H82.2999C82.1899 28.8 82.1049 28.785 82.0449 28.755C81.9949 28.715 81.9499 28.66 81.9099 28.59C81.8399 28.44 81.7349 28.285 81.5949 28.125C81.4649 27.955 81.2799 27.81 81.0399 27.69C80.8099 27.57 80.5049 27.51 80.1249 27.51C79.5549 27.51 79.1049 27.66 78.7749 27.96C78.4549 28.26 78.2799 28.74 78.2499 29.4C78.2199 30.26 78.2199 31.13 78.2499 32.01C78.2799 32.71 78.4649 33.215 78.8049 33.525C79.1449 33.835 79.5949 33.99 80.1549 33.99C80.5349 33.99 80.8699 33.925 81.1599 33.795C81.4599 33.665 81.6949 33.465 81.8649 33.195C82.0349 32.915 82.1199 32.56 82.1199 32.13V31.845H80.7099C80.5999 31.845 80.5049 31.81 80.4249 31.74C80.3549 31.66 80.3199 31.565 80.3199 31.455V30.345C80.3199 30.235 80.3549 30.145 80.4249 30.075C80.5049 29.995 80.5999 29.955 80.7099 29.955H84.4899C84.5999 29.955 84.6899 29.995 84.7599 30.075C84.8299 30.145 84.8649 30.235 84.8649 30.345V32.055C84.8649 32.915 84.6699 33.65 84.2799 34.26C83.8899 34.87 83.3349 35.34 82.6149 35.67C81.9049 35.99 81.0749 36.15 80.1249 36.15ZM85.4515 36C85.3715 36 85.2965 35.97 85.2265 35.91C85.1665 35.84 85.1365 35.765 85.1365 35.685C85.1365 35.635 85.1415 35.59 85.1515 35.55L88.6765 25.92C88.7065 25.81 88.7665 25.715 88.8565 25.635C88.9565 25.545 89.0915 25.5 89.2615 25.5H91.4815C91.6515 25.5 91.7815 25.545 91.8715 25.635C91.9715 25.715 92.0365 25.81 92.0665 25.92L95.5765 35.55C95.5965 35.59 95.6065 35.635 95.6065 35.685C95.6065 35.765 95.5715 35.84 95.5015 35.91C95.4415 35.97 95.3665 36 95.2765 36H93.4315C93.2815 36 93.1665 35.965 93.0865 35.895C93.0165 35.815 92.9715 35.745 92.9515 35.685L92.3665 34.155H88.3615L87.7915 35.685C87.7715 35.745 87.7265 35.815 87.6565 35.895C87.5865 35.965 87.4665 36 87.2965 36H85.4515ZM88.9765 31.995H91.7665L90.3565 28.035L88.9765 31.995ZM100.499 39.3C100.229 39.3 99.984 39.255 99.764 39.165C99.544 39.075 99.389 38.97 99.299 38.85C99.209 38.73 99.214 38.625 99.314 38.535L99.584 38.295C99.674 38.215 99.749 38.19 99.809 38.22C99.879 38.25 99.964 38.29 100.064 38.34C100.164 38.4 100.309 38.43 100.499 38.43C100.649 38.43 100.769 38.385 100.859 38.295C100.949 38.205 100.994 38.1 100.994 37.98C100.994 37.85 100.949 37.74 100.859 37.65C100.769 37.57 100.649 37.53 100.499 37.53C100.379 37.53 100.269 37.545 100.169 37.575C100.069 37.615 99.974 37.635 99.884 37.635C99.804 37.645 99.724 37.62 99.644 37.56L99.359 37.26C99.299 37.2 99.269 37.135 99.269 37.065C99.279 36.995 99.314 36.9 99.374 36.78L99.674 36.09C98.914 36 98.259 35.79 97.709 35.46C97.169 35.13 96.749 34.685 96.449 34.125C96.149 33.555 95.979 32.875 95.939 32.085C95.929 31.675 95.924 31.235 95.924 30.765C95.924 30.295 95.929 29.845 95.939 29.415C95.979 28.545 96.189 27.81 96.569 27.21C96.949 26.6 97.479 26.14 98.159 25.83C98.839 25.51 99.644 25.35 100.574 25.35C101.234 25.35 101.844 25.435 102.404 25.605C102.964 25.765 103.454 26.005 103.874 26.325C104.294 26.635 104.619 27.015 104.849 27.465C105.089 27.905 105.214 28.405 105.224 28.965C105.234 29.055 105.204 29.13 105.134 29.19C105.074 29.25 104.999 29.28 104.909 29.28H102.884C102.754 29.28 102.654 29.255 102.584 29.205C102.514 29.145 102.454 29.04 102.404 28.89C102.264 28.36 102.034 28 101.714 27.81C101.404 27.61 101.019 27.51 100.559 27.51C100.009 27.51 99.574 27.665 99.254 27.975C98.934 28.275 98.759 28.78 98.729 29.49C98.699 30.31 98.699 31.15 98.729 32.01C98.759 32.72 98.934 33.23 99.254 33.54C99.574 33.84 100.009 33.99 100.559 33.99C101.019 33.99 101.409 33.89 101.729 33.69C102.049 33.49 102.274 33.13 102.404 32.61C102.444 32.46 102.499 32.36 102.569 32.31C102.649 32.25 102.754 32.22 102.884 32.22H104.909C104.999 32.22 105.074 32.25 105.134 32.31C105.204 32.37 105.234 32.445 105.224 32.535C105.214 33.095 105.089 33.6 104.849 34.05C104.619 34.49 104.294 34.87 103.874 35.19C103.454 35.5 102.964 35.74 102.404 35.91C101.844 36.07 101.234 36.15 100.574 36.15L100.274 36.75C100.334 36.72 100.414 36.695 100.514 36.675C100.624 36.665 100.709 36.66 100.769 36.66C101.129 36.66 101.414 36.78 101.624 37.02C101.844 37.26 101.954 37.575 101.954 37.965C101.954 38.345 101.824 38.66 101.564 38.91C101.304 39.17 100.949 39.3 100.499 39.3ZM105.769 36C105.689 36 105.614 35.97 105.544 35.91C105.484 35.84 105.454 35.765 105.454 35.685C105.454 35.635 105.459 35.59 105.469 35.55L108.994 25.92C109.024 25.81 109.084 25.715 109.174 25.635C109.274 25.545 109.409 25.5 109.579 25.5H111.799C111.969 25.5 112.099 25.545 112.189 25.635C112.289 25.715 112.354 25.81 112.384 25.92L115.894 35.55C115.914 35.59 115.924 35.635 115.924 35.685C115.924 35.765 115.889 35.84 115.819 35.91C115.759 35.97 115.684 36 115.594 36H113.749C113.599 36 113.484 35.965 113.404 35.895C113.334 35.815 113.289 35.745 113.269 35.685L112.684 34.155H108.679L108.109 35.685C108.089 35.745 108.044 35.815 107.974 35.895C107.904 35.965 107.784 36 107.614 36H105.769ZM109.294 31.995H112.084L110.674 28.035L109.294 31.995ZM111.589 24.825C111.319 24.825 111.094 24.78 110.914 24.69C110.734 24.6 110.569 24.515 110.419 24.435C110.279 24.345 110.119 24.3 109.939 24.3C109.799 24.3 109.699 24.335 109.639 24.405C109.579 24.475 109.524 24.55 109.474 24.63C109.424 24.71 109.344 24.75 109.234 24.75H108.334C108.264 24.75 108.204 24.725 108.154 24.675C108.104 24.615 108.079 24.555 108.079 24.495C108.079 24.335 108.104 24.145 108.154 23.925C108.214 23.705 108.309 23.495 108.439 23.295C108.579 23.085 108.754 22.915 108.964 22.785C109.184 22.645 109.449 22.575 109.759 22.575C110.039 22.575 110.269 22.62 110.449 22.71C110.629 22.8 110.794 22.89 110.944 22.98C111.094 23.07 111.254 23.115 111.424 23.115C111.564 23.115 111.659 23.075 111.709 22.995C111.769 22.915 111.824 22.84 111.874 22.77C111.924 22.69 112.004 22.65 112.114 22.65H113.014C113.104 22.65 113.169 22.68 113.209 22.74C113.259 22.79 113.284 22.85 113.284 22.92C113.284 23.08 113.254 23.27 113.194 23.49C113.134 23.7 113.039 23.91 112.909 24.12C112.779 24.32 112.604 24.49 112.384 24.63C112.164 24.76 111.899 24.825 111.589 24.825ZM120.877 36.15C119.957 36.15 119.157 36 118.477 35.7C117.797 35.4 117.267 34.95 116.887 34.35C116.507 33.74 116.297 32.98 116.257 32.07C116.247 31.64 116.242 31.21 116.242 30.78C116.242 30.35 116.247 29.915 116.257 29.475C116.297 28.575 116.507 27.82 116.887 27.21C117.277 26.59 117.812 26.125 118.492 25.815C119.172 25.505 119.967 25.35 120.877 25.35C121.777 25.35 122.567 25.505 123.247 25.815C123.937 26.125 124.477 26.59 124.867 27.21C125.257 27.82 125.467 28.575 125.497 29.475C125.517 29.915 125.527 30.35 125.527 30.78C125.527 31.21 125.517 31.64 125.497 32.07C125.457 32.98 125.247 33.74 124.867 34.35C124.487 34.95 123.957 35.4 123.277 35.7C122.597 36 121.797 36.15 120.877 36.15ZM120.877 33.99C121.407 33.99 121.837 33.83 122.167 33.51C122.507 33.19 122.687 32.68 122.707 31.98C122.727 31.54 122.737 31.125 122.737 30.735C122.737 30.345 122.727 29.94 122.707 29.52C122.687 29.05 122.597 28.67 122.437 28.38C122.287 28.08 122.077 27.86 121.807 27.72C121.537 27.58 121.227 27.51 120.877 27.51C120.537 27.51 120.232 27.58 119.962 27.72C119.692 27.86 119.477 28.08 119.317 28.38C119.157 28.67 119.067 29.05 119.047 29.52C119.037 29.94 119.032 30.345 119.032 30.735C119.032 31.125 119.037 31.54 119.047 31.98C119.077 32.68 119.257 33.19 119.587 33.51C119.917 33.83 120.347 33.99 120.877 33.99Z" fill="#145C2F"/>
</svg>
