<svg width="157" height="62" viewBox="0 0 157 62" fill="none" xmlns="http://www.w3.org/2000/svg">
<rect width="156.502" height="62" rx="31" fill="#25D366" fill-opacity="0.25"/>
<rect x="10.1914" y="10.1924" width="41.5153" height="41.6162" rx="20.7577" fill="#25D366"/>
<path fill-rule="evenodd" clip-rule="evenodd" d="M26.2191 38.2492C27.7018 39.1294 29.1173 39.6567 30.9893 39.6576C35.809 39.6576 39.7353 35.7349 39.7379 30.9125C39.7397 26.0804 35.832 22.163 30.9964 22.1612C26.1731 22.1612 22.2495 26.0839 22.2477 30.9054C22.2468 32.8738 22.8237 34.3477 23.7924 35.8897L22.9086 39.1171L26.2191 38.2492ZM35.7887 33.1083C36.0523 33.2401 36.2275 33.3056 36.293 33.4153C36.3593 33.525 36.3593 34.0514 36.1399 34.6662C35.9205 35.2802 34.8704 35.8411 34.3652 35.9163C33.9123 35.9835 33.339 36.0118 32.7091 35.8119C32.3278 35.6907 31.8377 35.5288 31.2105 35.2581C28.5732 34.1195 26.8516 31.4637 26.7198 31.2885L26.7167 31.2843C26.5746 31.0944 25.6467 29.8534 25.6467 28.569C25.6467 27.2747 26.3261 26.6395 26.5668 26.3758C26.8074 26.1122 27.0923 26.0467 27.2674 26.0467L27.7717 26.0556C27.9327 26.0635 28.1495 25.9945 28.3635 26.5068C28.5821 27.0332 29.1076 28.3275 29.1739 28.4584C29.2403 28.5902 29.2836 28.7441 29.196 28.9193C29.1076 29.0954 29.0642 29.2051 28.9306 29.3572C28.7988 29.5112 28.6546 29.7005 28.5361 29.8181C28.4051 29.9491 28.268 30.0915 28.421 30.3543C28.5741 30.6179 29.1023 31.4787 29.8834 32.1758C30.8875 33.072 31.7351 33.3489 31.9978 33.4807C32.2606 33.6126 32.4145 33.5904 32.5676 33.4153C32.7206 33.2401 33.2249 32.6474 33.4 32.3846C33.5761 32.121 33.7513 32.1652 33.9919 32.2528C34.2334 32.3404 35.5259 32.9765 35.7887 33.1083Z" fill="white"/>
<path fill-rule="evenodd" clip-rule="evenodd" d="M21.8753 36.1649L20.3828 41.6172L25.9607 40.1539C27.4974 40.9926 29.2323 41.434 30.9928 41.4349C36.7919 41.4349 41.5117 36.7151 41.5144 30.9143C41.5153 28.1027 40.4218 25.4593 38.4357 23.4705C36.4487 21.4818 33.807 20.3857 30.9928 20.3848C25.1937 20.3848 20.4739 25.1046 20.4713 30.9045C20.4704 32.7597 20.9543 34.5689 21.8753 36.1649ZM30.9893 39.6576C29.1173 39.6567 27.7018 39.1294 26.2191 38.2492L22.9086 39.1171L23.7924 35.8897C22.8237 34.3477 22.2468 32.8738 22.2477 30.9054C22.2495 26.0839 26.1731 22.1612 30.9964 22.1612C35.832 22.163 39.7397 26.0804 39.7379 30.9125C39.7353 35.7349 35.809 39.6576 30.9893 39.6576Z" fill="white"/>
<path d="M61.532 36C61.362 36 61.227 35.95 61.127 35.85C61.027 35.75 60.967 35.635 60.947 35.505L59.312 25.92C59.302 25.9 59.297 25.88 59.297 25.86C59.297 25.84 59.297 25.825 59.297 25.815C59.297 25.735 59.327 25.665 59.387 25.605C59.457 25.535 59.532 25.5 59.612 25.5H61.472C61.752 25.5 61.907 25.61 61.937 25.83L62.912 31.695L63.992 28.23C64.022 28.15 64.072 28.065 64.142 27.975C64.212 27.875 64.327 27.825 64.487 27.825H65.567C65.737 27.825 65.857 27.875 65.927 27.975C65.997 28.065 66.042 28.15 66.062 28.23L67.142 31.68L68.117 25.83C68.147 25.61 68.302 25.5 68.582 25.5H70.442C70.532 25.5 70.607 25.535 70.667 25.605C70.727 25.665 70.757 25.735 70.757 25.815C70.757 25.825 70.757 25.84 70.757 25.86C70.757 25.88 70.757 25.9 70.757 25.92L69.122 35.505C69.102 35.635 69.042 35.75 68.942 35.85C68.842 35.95 68.707 36 68.537 36H67.112C66.942 36 66.812 35.955 66.722 35.865C66.632 35.775 66.572 35.69 66.542 35.61L65.027 31.32L63.512 35.61C63.482 35.69 63.422 35.775 63.332 35.865C63.252 35.955 63.127 36 62.957 36H61.532ZM72.3781 36C72.2681 36 72.1781 35.965 72.1081 35.895C72.0381 35.825 72.0031 35.735 72.0031 35.625V25.875C72.0031 25.765 72.0381 25.675 72.1081 25.605C72.1781 25.535 72.2681 25.5 72.3781 25.5H74.3131C74.4231 25.5 74.5131 25.535 74.5831 25.605C74.6531 25.675 74.6881 25.765 74.6881 25.875V29.49H78.3931V25.875C78.3931 25.765 78.4281 25.675 78.4981 25.605C78.5681 25.535 78.6581 25.5 78.7681 25.5H80.7031C80.8131 25.5 80.9031 25.535 80.9731 25.605C81.0431 25.675 81.0781 25.765 81.0781 25.875V35.625C81.0781 35.735 81.0431 35.825 80.9731 35.895C80.9031 35.965 80.8131 36 80.7031 36H78.7681C78.6581 36 78.5681 35.965 78.4981 35.895C78.4281 35.825 78.3931 35.735 78.3931 35.625V31.89H74.6881V35.625C74.6881 35.735 74.6531 35.825 74.5831 35.895C74.5131 35.965 74.4231 36 74.3131 36H72.3781ZM82.2799 36C82.1999 36 82.1249 35.97 82.0549 35.91C81.9949 35.84 81.9649 35.765 81.9649 35.685C81.9649 35.635 81.9699 35.59 81.9799 35.55L85.5049 25.92C85.5349 25.81 85.5949 25.715 85.6849 25.635C85.7849 25.545 85.9199 25.5 86.0899 25.5H88.3099C88.4799 25.5 88.6099 25.545 88.6999 25.635C88.7999 25.715 88.8649 25.81 88.8949 25.92L92.4049 35.55C92.4249 35.59 92.4349 35.635 92.4349 35.685C92.4349 35.765 92.3999 35.84 92.3299 35.91C92.2699 35.97 92.1949 36 92.1049 36H90.2599C90.1099 36 89.9949 35.965 89.9149 35.895C89.8449 35.815 89.7999 35.745 89.7799 35.685L89.1949 34.155H85.1899L84.6199 35.685C84.5999 35.745 84.5549 35.815 84.4849 35.895C84.4149 35.965 84.2949 36 84.1249 36H82.2799ZM85.8049 31.995H88.5949L87.1849 28.035L85.8049 31.995ZM94.9328 36C94.8228 36 94.7328 35.965 94.6628 35.895C94.5928 35.825 94.5578 35.735 94.5578 35.625V27.855H91.8878C91.7778 27.855 91.6878 27.82 91.6178 27.75C91.5478 27.67 91.5128 27.58 91.5128 27.48V25.875C91.5128 25.765 91.5478 25.675 91.6178 25.605C91.6878 25.535 91.7778 25.5 91.8878 25.5H99.9579C100.068 25.5 100.158 25.535 100.228 25.605C100.298 25.675 100.333 25.765 100.333 25.875V27.48C100.333 27.58 100.298 27.67 100.228 27.75C100.158 27.82 100.068 27.855 99.9579 27.855H97.2878V35.625C97.2878 35.735 97.2528 35.825 97.1828 35.895C97.1128 35.965 97.0228 36 96.9128 36H94.9328ZM105.282 36.15C104.282 36.15 103.452 36.01 102.792 35.73C102.132 35.44 101.632 35.065 101.292 34.605C100.952 34.145 100.772 33.655 100.752 33.135C100.752 33.055 100.782 32.985 100.842 32.925C100.912 32.855 100.992 32.82 101.082 32.82H102.972C103.112 32.82 103.217 32.845 103.287 32.895C103.367 32.945 103.437 33.01 103.497 33.09C103.577 33.24 103.687 33.385 103.827 33.525C103.977 33.665 104.167 33.78 104.397 33.87C104.637 33.95 104.932 33.99 105.282 33.99C105.862 33.99 106.297 33.9 106.587 33.72C106.887 33.54 107.037 33.295 107.037 32.985C107.037 32.765 106.957 32.585 106.797 32.445C106.637 32.295 106.377 32.165 106.017 32.055C105.667 31.935 105.197 31.815 104.607 31.695C103.847 31.535 103.197 31.33 102.657 31.08C102.127 30.82 101.722 30.485 101.442 30.075C101.162 29.655 101.022 29.135 101.022 28.515C101.022 27.905 101.192 27.36 101.532 26.88C101.882 26.4 102.367 26.025 102.987 25.755C103.607 25.485 104.342 25.35 105.192 25.35C105.882 25.35 106.487 25.44 107.007 25.62C107.537 25.8 107.982 26.04 108.342 26.34C108.702 26.64 108.972 26.96 109.152 27.3C109.342 27.63 109.442 27.955 109.452 28.275C109.452 28.355 109.422 28.43 109.362 28.5C109.302 28.56 109.227 28.59 109.137 28.59H107.157C107.047 28.59 106.952 28.57 106.872 28.53C106.792 28.49 106.722 28.425 106.662 28.335C106.602 28.115 106.442 27.925 106.182 27.765C105.932 27.595 105.602 27.51 105.192 27.51C104.752 27.51 104.407 27.59 104.157 27.75C103.917 27.9 103.797 28.135 103.797 28.455C103.797 28.655 103.862 28.83 103.992 28.98C104.132 29.13 104.357 29.26 104.667 29.37C104.987 29.48 105.422 29.595 105.972 29.715C106.882 29.885 107.617 30.1 108.177 30.36C108.737 30.61 109.147 30.94 109.407 31.35C109.667 31.75 109.797 32.255 109.797 32.865C109.797 33.545 109.602 34.135 109.212 34.635C108.832 35.125 108.302 35.5 107.622 35.76C106.942 36.02 106.162 36.15 105.282 36.15ZM110.237 36C110.157 36 110.082 35.97 110.012 35.91C109.952 35.84 109.922 35.765 109.922 35.685C109.922 35.635 109.927 35.59 109.937 35.55L113.462 25.92C113.492 25.81 113.552 25.715 113.642 25.635C113.742 25.545 113.877 25.5 114.047 25.5H116.267C116.437 25.5 116.567 25.545 116.657 25.635C116.757 25.715 116.822 25.81 116.852 25.92L120.362 35.55C120.382 35.59 120.392 35.635 120.392 35.685C120.392 35.765 120.357 35.84 120.287 35.91C120.227 35.97 120.152 36 120.062 36H118.217C118.067 36 117.952 35.965 117.872 35.895C117.802 35.815 117.757 35.745 117.737 35.685L117.152 34.155H113.147L112.577 35.685C112.557 35.745 112.512 35.815 112.442 35.895C112.372 35.965 112.252 36 112.082 36H110.237ZM113.762 31.995H116.552L115.142 28.035L113.762 31.995ZM121.65 36C121.54 36 121.45 35.965 121.38 35.895C121.31 35.825 121.275 35.735 121.275 35.625V25.875C121.275 25.765 121.31 25.675 121.38 25.605C121.45 25.535 121.54 25.5 121.65 25.5H125.85C126.68 25.5 127.4 25.63 128.01 25.89C128.63 26.14 129.11 26.52 129.45 27.03C129.8 27.54 129.975 28.185 129.975 28.965C129.975 29.735 129.8 30.37 129.45 30.87C129.11 31.37 128.63 31.74 128.01 31.98C127.4 32.22 126.68 32.34 125.85 32.34H124.065V35.625C124.065 35.735 124.025 35.825 123.945 35.895C123.875 35.965 123.785 36 123.675 36H121.65ZM124.02 30.27H125.775C126.205 30.27 126.545 30.16 126.795 29.94C127.055 29.72 127.185 29.385 127.185 28.935C127.185 28.555 127.075 28.235 126.855 27.975C126.635 27.715 126.275 27.585 125.775 27.585H124.02V30.27ZM131.486 36C131.376 36 131.286 35.965 131.216 35.895C131.146 35.825 131.111 35.735 131.111 35.625V25.875C131.111 25.765 131.146 25.675 131.216 25.605C131.286 25.535 131.376 25.5 131.486 25.5H135.686C136.516 25.5 137.236 25.63 137.846 25.89C138.466 26.14 138.946 26.52 139.286 27.03C139.636 27.54 139.811 28.185 139.811 28.965C139.811 29.735 139.636 30.37 139.286 30.87C138.946 31.37 138.466 31.74 137.846 31.98C137.236 32.22 136.516 32.34 135.686 32.34H133.901V35.625C133.901 35.735 133.861 35.825 133.781 35.895C133.711 35.965 133.621 36 133.511 36H131.486ZM133.856 30.27H135.611C136.041 30.27 136.381 30.16 136.631 29.94C136.891 29.72 137.021 29.385 137.021 28.935C137.021 28.555 136.911 28.235 136.691 27.975C136.471 27.715 136.111 27.585 135.611 27.585H133.856V30.27Z" fill="#145C2F"/>
</svg>
