<svg width="61" height="61" viewBox="0 0 61 61" fill="none" xmlns="http://www.w3.org/2000/svg">
<rect width="61" height="61" rx="12" fill="#25D366"/>
<path fill-rule="evenodd" clip-rule="evenodd" d="M25.2696 38.191C26.8625 39.1366 28.3831 39.703 30.3941 39.704C35.5717 39.704 39.7895 35.49 39.7924 30.3095C39.7943 25.1185 35.5964 20.9103 30.4017 20.9084C25.2202 20.9084 21.0053 25.1223 21.0034 30.3019C21.0024 32.4165 21.6221 33.9998 22.6628 35.6563L21.7133 39.1233L25.2696 38.191ZM35.5499 32.6683C35.8331 32.8099 36.0213 32.8803 36.0916 32.9981C36.1629 33.116 36.1629 33.6814 35.9272 34.3419C35.6915 35.0015 34.5634 35.604 34.0207 35.6848C33.5341 35.7571 32.9183 35.7875 32.2416 35.5727C31.832 35.4425 31.3055 35.2686 30.6317 34.9778C27.7986 33.7546 25.9492 30.9016 25.8076 30.7134L25.8042 30.7089C25.6516 30.5049 24.6547 29.1718 24.6547 27.7919C24.6547 26.4015 25.3846 25.7192 25.6431 25.436C25.9016 25.1527 26.2077 25.0824 26.3958 25.0824L26.9376 25.0919C27.1105 25.1005 27.3434 25.0263 27.5734 25.5766C27.8081 26.1421 28.3726 27.5325 28.4439 27.6731C28.5152 27.8148 28.5618 27.9801 28.4677 28.1683C28.3726 28.3574 28.3261 28.4753 28.1825 28.6387C28.0409 28.8041 27.886 29.0075 27.7587 29.1339C27.618 29.2745 27.4707 29.4275 27.6351 29.7098C27.7995 29.993 28.3669 30.9177 29.2061 31.6666C30.2848 32.6294 31.1952 32.9268 31.4775 33.0684C31.7598 33.21 31.9251 33.1863 32.0896 32.9981C32.254 32.8099 32.7957 32.1732 32.9839 31.8909C33.173 31.6077 33.3612 31.6552 33.6197 31.7493C33.8791 31.8434 35.2676 32.5267 35.5499 32.6683Z" fill="white"/>
<path fill-rule="evenodd" clip-rule="evenodd" d="M20.6033 35.9519L19 41.8091L24.9921 40.2371C26.6429 41.1381 28.5066 41.6123 30.3979 41.6133C36.6276 41.6133 41.6979 36.543 41.7007 30.3114C41.7017 27.2911 40.527 24.4514 38.3934 22.3149C36.2589 20.1785 33.421 19.001 30.3979 19C24.1682 19 19.0979 24.0703 19.095 30.3009C19.0941 32.2939 19.6139 34.2374 20.6033 35.9519ZM30.3941 39.704C28.3831 39.703 26.8625 39.1366 25.2696 38.191L21.7133 39.1233L22.6628 35.6563C21.6221 33.9998 21.0024 32.4165 21.0034 30.3019C21.0053 25.1223 25.2202 20.9084 30.4017 20.9084C35.5964 20.9103 39.7943 25.1185 39.7924 30.3095C39.7895 35.49 35.5717 39.704 30.3941 39.704Z" fill="white"/>
</svg>
