<svg preserveAspectRatio="none" width="100%" height="100%" overflow="visible" style="display: block;" viewBox="0 0 38.0179 38.0179" fill="none" xmlns="http://www.w3.org/2000/svg">
<g id="cognition_2">
<mask id="mask0_0_4" style="mask-type:alpha" maskUnits="userSpaceOnUse" x="0" y="0" width="39" height="39">
<rect id="Bounding box" width="38.0179" height="38.0179" fill="var(--fill-0, #D9D9D9)"/>
</mask>
<g mask="url(#mask0_0_4)">
<path id="cognition_2_2" d="M9.50446 34.8497V28.0382C7.99959 26.6653 6.83133 25.0614 5.99969 23.2265C5.16805 21.3916 4.75223 19.4577 4.75223 17.4249C4.75223 13.4647 6.1383 10.0985 8.91043 7.32636C11.6826 4.55422 15.0487 3.16815 19.0089 3.16815C22.3091 3.16815 25.233 4.1384 27.7808 6.0789C30.3285 8.01939 31.9852 10.5473 32.7508 13.6627L34.8101 21.7811C34.9421 22.2827 34.8497 22.7381 34.5329 23.1473C34.2161 23.5566 33.7936 23.7612 33.2656 23.7612H30.0975V28.5134C30.0975 29.3846 29.7873 30.1305 29.1668 30.7509C28.5464 31.3713 27.8006 31.6815 26.9293 31.6815H23.7612V34.8497H9.50446ZM15.0487 23.7612C16.1576 23.7612 17.0948 23.3783 17.8605 22.6127L24.1968 16.2764C24.9624 15.5108 25.3452 14.5735 25.3452 13.4647C25.3452 12.3558 24.9624 11.4186 24.1968 10.6529C23.4311 9.88728 22.4939 9.50446 21.385 9.50446C20.2762 9.50446 19.3389 9.88728 18.5733 10.6529C17.5965 10.3097 16.6328 10.2305 15.6824 10.4153C14.7319 10.6001 13.9267 11.0225 13.2666 11.6826C12.6066 12.3426 12.1842 13.1478 11.9994 14.0983C11.8146 15.0487 11.8938 16.0124 12.237 16.9892C11.4714 17.7549 11.0885 18.6921 11.0885 19.801C11.0885 20.9098 11.4714 21.8471 12.237 22.6127C13.0026 23.3783 13.9399 23.7612 15.0487 23.7612Z" fill="url(#paint0_linear_0_4)"/>
</g>
</g>
<defs>
<linearGradient id="paint0_linear_0_4" x1="3.73079" y1="219.659" x2="37.338" y2="219.542" gradientUnits="userSpaceOnUse">
<stop stop-color="#FE0000"/>
<stop offset="1" stop-color="#FE0066"/>
</linearGradient>
</defs>
</svg>
