<svg preserveAspectRatio="none" width="100%" height="100%" overflow="visible" style="display: block;" viewBox="0 0 38 38" fill="none" xmlns="http://www.w3.org/2000/svg">
<g id="radar">
<mask id="mask0_0_4" style="mask-type:alpha" maskUnits="userSpaceOnUse" x="0" y="0" width="38" height="38">
<rect id="Bounding box" width="38" height="38" fill="var(--fill-0, #D9D9D9)"/>
</mask>
<g mask="url(#mask0_0_4)">
<path id="radar_2" d="M12.825 33.5865C10.8986 32.7552 9.22292 31.6271 7.79792 30.2021C6.37292 28.7771 5.24479 27.1014 4.41354 25.175C3.58229 23.2486 3.16667 21.1903 3.16667 19C3.16667 16.8097 3.58229 14.7514 4.41354 12.825C5.24479 10.8986 6.37292 9.22292 7.79792 7.79792C9.22292 6.37292 10.8986 5.24479 12.825 4.41354C14.7514 3.58229 16.8097 3.16667 19 3.16667C21.1903 3.16667 23.2486 3.58229 25.175 4.41354C27.1014 5.24479 28.7771 6.37292 30.2021 7.79792C31.6271 9.22292 32.7552 10.8986 33.5865 12.825C34.4177 14.7514 34.8333 16.8097 34.8333 19C34.8333 21.1903 34.4177 23.2486 33.5865 25.175C32.7552 27.1014 31.6271 28.7771 30.2021 30.2021C28.7771 31.6271 27.1014 32.7552 25.175 33.5865C23.2486 34.4177 21.1903 34.8333 19 34.8333C16.8097 34.8333 14.7514 34.4177 12.825 33.5865ZM19 31.6667C20.4778 31.6667 21.8698 31.4358 23.176 30.974C24.4823 30.5122 25.6764 29.859 26.7583 29.0146L24.5021 26.7583C23.7368 27.3125 22.8858 27.7413 21.949 28.0448C21.0122 28.3483 20.0292 28.5 19 28.5C16.3611 28.5 14.1181 27.5764 12.2708 25.7292C10.4236 23.8819 9.5 21.6389 9.5 19C9.5 16.3611 10.4236 14.1181 12.2708 12.2708C14.1181 10.4236 16.3611 9.5 19 9.5C21.6389 9.5 23.8819 10.4236 25.7292 12.2708C27.5764 14.1181 28.5 16.3611 28.5 19C28.5 20.0292 28.3417 21.0187 28.025 21.9687C27.7083 22.9187 27.2729 23.7764 26.7187 24.5417L28.975 26.7979C29.8194 25.716 30.4792 24.5153 30.9542 23.1958C31.4292 21.8764 31.6667 20.4778 31.6667 19C31.6667 15.4639 30.4396 12.4687 27.9854 10.0146C25.5312 7.56042 22.5361 6.33333 19 6.33333C15.4639 6.33333 12.4687 7.56042 10.0146 10.0146C7.56042 12.4687 6.33333 15.4639 6.33333 19C6.33333 22.5361 7.56042 25.5312 10.0146 27.9854C12.4687 30.4396 15.4639 31.6667 19 31.6667ZM19 25.3333C19.5806 25.3333 20.1413 25.2608 20.6823 25.1156C21.2233 24.9705 21.7312 24.7528 22.2062 24.4625L19.7917 22.0479C19.6597 22.1007 19.5278 22.1337 19.3958 22.1469C19.2639 22.1601 19.1319 22.1667 19 22.1667C18.1292 22.1667 17.3837 21.8566 16.7635 21.2365C16.1434 20.6163 15.8333 19.8708 15.8333 19C15.8333 18.1292 16.1434 17.3837 16.7635 16.7635C17.3837 16.1434 18.1292 15.8333 19 15.8333C19.8708 15.8333 20.6163 16.1434 21.2365 16.7635C21.8566 17.3837 22.1667 18.1292 22.1667 19C22.1667 19.1583 22.1601 19.3101 22.1469 19.4552C22.1337 19.6003 22.1007 19.7389 22.0479 19.8708L24.4229 22.2458C24.7132 21.7708 24.9375 21.2628 25.0958 20.7219C25.2542 20.1809 25.3333 19.6069 25.3333 19C25.3333 17.2583 24.7132 15.7674 23.4729 14.5271C22.2326 13.2868 20.7417 12.6667 19 12.6667C17.2583 12.6667 15.7674 13.2868 14.5271 14.5271C13.2868 15.7674 12.6667 17.2583 12.6667 19C12.6667 20.7417 13.2868 22.2326 14.5271 23.4729C15.7674 24.7132 17.2583 25.3333 19 25.3333Z" fill="url(#paint0_linear_0_4)"/>
</g>
</g>
<defs>
<linearGradient id="paint0_linear_0_4" x1="2.09263" y1="219.556" x2="37.4301" y2="219.427" gradientUnits="userSpaceOnUse">
<stop stop-color="#FE0000"/>
<stop offset="1" stop-color="#FE0066"/>
</linearGradient>
</defs>
</svg>
