<svg preserveAspectRatio="none" width="100%" height="100%" overflow="visible" style="display: block;" viewBox="0 0 33.0469 31.5" fill="none" xmlns="http://www.w3.org/2000/svg">
<g id="Container" opacity="0.9">
<path id="Icon" d="M33.0469 15.75L29.3906 11.5312L29.8828 6.04688L24.4688 4.78125L21.6562 0L16.5234 2.17969L11.3906 0L8.57812 4.78125L3.16406 5.97656L3.65625 11.5312L0 15.75L3.65625 19.9688L3.16406 25.4531L8.57812 26.7188L11.3906 31.5L16.5234 29.3203L21.6562 31.5L24.4688 26.7188L29.8828 25.4531L29.3906 19.9688L33.0469 15.75V15.75M12.5859 21.7969L9 18.1406C8.4375 17.5781 8.4375 16.6641 9 16.0312L9.14062 15.9609C9.70312 15.3281 10.6875 15.3281 11.25 15.9609L13.6406 18.3516L21.375 10.6172C22.0078 10.0547 22.9219 10.0547 23.5547 10.6172L23.625 10.7578C24.1875 11.3203 24.1875 12.3047 23.625 12.8672L14.7656 21.7969C14.1328 22.3594 13.2188 22.3594 12.5859 21.7969V21.7969" fill="var(--fill-0, white)"/>
</g>
</svg>
