<svg preserveAspectRatio="none" width="100%" height="100%" overflow="visible" style="display: block;" viewBox="0 0 20.0391 25.7403" fill="none" xmlns="http://www.w3.org/2000/svg">
<g id="Container">
<path id="Icon" d="M8.67188 13.418L10.0195 12.4219L11.3672 13.418C11.8359 13.7695 12.4805 13.3008 12.3047 12.7148L11.8359 11.0156L13.3008 9.84375C13.7695 9.49219 13.5352 8.73047 12.8906 8.73047H11.1328L10.6055 7.03125C10.4297 6.50391 9.60938 6.50391 9.43359 7.03125L8.90625 8.73047H7.14844C6.50391 8.73047 6.26953 9.49219 6.73828 9.84375L8.20312 11.0156L7.67578 12.7148C7.5 13.3008 8.20312 13.7695 8.67188 13.418V13.418M2.51953 24.4922C2.51953 25.3711 3.33984 25.957 4.16016 25.6641L10.0195 23.7305L15.8789 25.6641C16.6992 25.957 17.5195 25.3711 17.5195 24.4922V16.582C19.043 14.8242 20.0391 12.5391 20.0391 9.96094C20.0391 4.45312 15.5273 0 10.0195 0C4.51172 0 0 4.45312 0 9.96094C0 12.5391 0.996094 14.8242 2.51953 16.582V24.4922V24.4922M10.0195 2.46094C14.1797 2.46094 17.5195 5.85938 17.5195 9.96094C17.5195 14.1211 14.1797 17.4609 10.0195 17.4609C5.85938 17.4609 2.51953 14.1211 2.51953 9.96094C2.51953 5.85938 5.85938 2.46094 10.0195 2.46094V2.46094" fill="var(--fill-0, #2563EB)"/>
</g>
</svg>
