<svg preserveAspectRatio="none" width="100%" height="100%" overflow="visible" style="display: block;" viewBox="0 0 20.0229 20.0229" fill="none" xmlns="http://www.w3.org/2000/svg">
<g id="alarm_on">
<mask id="mask0_0_10" style="mask-type:alpha" maskUnits="userSpaceOnUse" x="0" y="0" width="21" height="21">
<rect id="Bounding box" width="20.0229" height="20.0229" fill="var(--fill-0, #D9D9D9)"/>
</mask>
<g mask="url(#mask0_0_10)">
<path id="alarm_on_2" d="M9.13543 13.8074L13.8491 9.09371L12.6603 7.90486L9.13543 11.4297L7.36257 9.65686L6.17371 10.8457L9.13543 13.8074ZM7.081 17.7599C6.17024 17.3636 5.37767 16.8282 4.70329 16.1539C4.0289 15.4795 3.49357 14.6869 3.09729 13.7761C2.701 12.8654 2.50286 11.8886 2.50286 10.8457C2.50286 9.80286 2.701 8.82605 3.09729 7.91529C3.49357 7.00452 4.0289 6.21195 4.70329 5.53757C5.37767 4.86319 6.17024 4.32786 7.081 3.93157C7.99176 3.53529 8.96857 3.33714 10.0114 3.33714C11.0543 3.33714 12.0311 3.53529 12.9419 3.93157C13.8526 4.32786 14.6452 4.86319 15.3196 5.53757C15.994 6.21195 16.5293 7.00452 16.9256 7.91529C17.3219 8.82605 17.52 9.80286 17.52 10.8457C17.52 11.8886 17.3219 12.8654 16.9256 13.7761C16.5293 14.6869 15.994 15.4795 15.3196 16.1539C14.6452 16.8282 13.8526 17.3636 12.9419 17.7599C12.0311 18.1561 11.0543 18.3543 10.0114 18.3543C8.96857 18.3543 7.99176 18.1561 7.081 17.7599ZM4.672 1.96057L5.84 3.12857L2.29429 6.67429L1.12629 5.50629L4.672 1.96057ZM15.3509 1.96057L18.8966 5.50629L17.7286 6.67429L14.1829 3.12857L15.3509 1.96057Z" fill="var(--fill-0, white)"/>
</g>
</g>
</svg>
