<svg preserveAspectRatio="none" width="100%" height="100%" overflow="visible" style="display: block;" viewBox="0 0 20.0229 20.0229" fill="none" xmlns="http://www.w3.org/2000/svg">
<g id="hourglass_top">
<mask id="mask0_0_4" style="mask-type:alpha" maskUnits="userSpaceOnUse" x="0" y="0" width="21" height="21">
<rect id="Bounding box" width="20.0229" height="20.0229" fill="var(--fill-0, #D9D9D9)"/>
</mask>
<g mask="url(#mask0_0_4)">
<path id="hourglass_top_2" d="M6.67429 16.6857H13.3486V14.1829C13.3486 13.2651 13.0218 12.4795 12.3683 11.826C11.7148 11.1725 10.9291 10.8457 10.0114 10.8457C9.09371 10.8457 8.3081 11.1725 7.65457 11.826C7.00105 12.4795 6.67429 13.2651 6.67429 14.1829V16.6857ZM3.33714 18.3543V16.6857H5.00571V14.1829C5.00571 13.3347 5.20386 12.5386 5.60014 11.7947C5.99643 11.0508 6.54914 10.4564 7.25829 10.0114C6.54914 9.56648 5.99643 8.97205 5.60014 8.22814C5.20386 7.48424 5.00571 6.68819 5.00571 5.84V3.33714H3.33714V1.66857H16.6857V3.33714H15.0171V5.84C15.0171 6.68819 14.819 7.48424 14.4227 8.22814C14.0264 8.97205 13.4737 9.56648 12.7646 10.0114C13.4737 10.4564 14.0264 11.0508 14.4227 11.7947C14.819 12.5386 15.0171 13.3347 15.0171 14.1829V16.6857H16.6857V18.3543H3.33714Z" fill="var(--fill-0, white)"/>
</g>
</g>
</svg>
