<svg preserveAspectRatio="none" width="100%" height="100%" overflow="visible" style="display: block;" viewBox="0 0 20.8717 20.8717" fill="none" xmlns="http://www.w3.org/2000/svg">
<g id="ink_pen">
<mask id="mask0_0_7" style="mask-type:alpha" maskUnits="userSpaceOnUse" x="0" y="0" width="21" height="21">
<rect id="Bounding box" width="20.8717" height="20.8717" fill="var(--fill-0, #D9D9D9)"/>
</mask>
<g mask="url(#mask0_0_7)">
<path id="ink_pen_2" d="M13.284 10.8489L10.0228 7.56598L12.436 5.17444L11.8055 4.54394L7.04419 9.30529L5.82668 8.08777L10.5663 3.32642C10.9141 2.97856 11.3236 2.80463 11.7947 2.80463C12.2657 2.80463 12.6752 2.97856 13.0231 3.32642L13.6536 3.95692L14.7406 2.86985C14.9145 2.69592 15.1211 2.60896 15.3602 2.60896C15.5994 2.60896 15.8059 2.69592 15.9799 2.86985L18.0018 4.8918C18.1757 5.06573 18.2627 5.27227 18.2627 5.51143C18.2627 5.75058 18.1757 5.95712 18.0018 6.13105L13.284 10.8489ZM5.87016 18.2627H2.60896V15.0015L8.7835 8.80524L12.0664 12.0664L5.87016 18.2627Z" fill="var(--fill-0, white)"/>
</g>
</g>
</svg>
